<svg xmlns="http://www.w3.org/2000/svg" width="87.504" height="87.502" viewBox="0 0 87.504 87.502" fill="none">
  <path d="M 48.25 0 C 53.172 0.013 55.67 0.039 57.827 0.101 L 58.676 0.131 C 59.656 0.166 60.622 0.21 61.791 0.262 C 66.446 0.481 69.622 1.216 72.409 2.297 C 75.296 3.408 77.729 4.913 80.161 7.341 C 82.387 9.528 84.108 12.173 85.206 15.094 C 86.286 17.881 87.021 21.057 87.24 25.716 C 87.292 26.88 87.336 27.847 87.371 28.831 L 87.397 29.68 C 87.463 31.833 87.489 34.331 87.498 39.253 L 87.502 42.516 L 87.502 48.247 C 87.513 51.439 87.48 54.63 87.402 57.82 L 87.376 58.669 C 87.341 59.653 87.297 60.62 87.244 61.784 C 87.026 66.443 86.282 69.615 85.206 72.406 C 84.108 75.327 82.387 77.972 80.161 80.159 C 77.975 82.384 75.329 84.106 72.409 85.203 C 69.622 86.284 66.446 87.019 61.791 87.238 L 58.676 87.369 L 57.827 87.395 C 55.67 87.456 53.172 87.487 48.25 87.496 L 44.986 87.5 L 39.259 87.5 C 36.067 87.511 32.874 87.478 29.682 87.399 L 28.834 87.373 C 27.795 87.334 26.757 87.289 25.719 87.238 C 21.064 87.019 17.887 86.284 15.096 85.203 C 12.177 84.105 9.533 82.384 7.348 80.159 C 5.121 77.973 3.398 75.327 2.299 72.406 C 1.219 69.619 0.484 66.443 0.265 61.784 L 0.134 58.669 L 0.112 57.82 C 0.031 54.63 -0.005 51.439 0.002 48.247 L 0.002 39.253 C -0.01 36.061 0.022 32.87 0.099 29.68 L 0.129 28.831 C 0.164 27.847 0.208 26.88 0.261 25.716 C 0.479 21.057 1.214 17.885 2.295 15.094 C 3.396 12.172 5.122 9.526 7.352 7.341 C 9.536 5.117 12.179 3.395 15.096 2.297 C 17.887 1.216 21.059 0.481 25.719 0.262 C 26.882 0.21 27.854 0.166 28.834 0.131 L 29.682 0.105 C 32.873 0.027 36.064 -0.006 39.255 0.004 L 48.25 0 Z M 43.752 21.875 C 37.951 21.875 32.387 24.18 28.285 28.282 C 24.182 32.384 21.877 37.948 21.877 43.75 C 21.877 49.552 24.182 55.116 28.285 59.218 C 32.387 63.32 37.951 65.625 43.752 65.625 C 49.554 65.625 55.118 63.32 59.22 59.218 C 63.323 55.116 65.627 49.552 65.627 43.75 C 65.627 37.948 63.323 32.384 59.22 28.282 C 55.118 24.18 49.554 21.875 43.752 21.875 Z M 43.752 30.625 C 45.476 30.625 47.183 30.964 48.775 31.623 C 50.368 32.283 51.815 33.249 53.034 34.468 C 54.253 35.686 55.22 37.133 55.88 38.725 C 56.54 40.318 56.879 42.024 56.88 43.748 C 56.88 45.471 56.541 47.178 55.881 48.771 C 55.222 50.363 54.256 51.81 53.037 53.029 C 51.818 54.248 50.372 55.215 48.779 55.875 C 47.187 56.535 45.48 56.875 43.757 56.875 C 40.276 56.875 36.938 55.492 34.476 53.031 C 32.015 50.569 30.632 47.231 30.632 43.75 C 30.632 40.269 32.015 36.931 34.476 34.469 C 36.938 32.008 40.276 30.625 43.757 30.625 M 66.726 15.313 C 65.275 15.313 63.884 15.889 62.859 16.914 C 61.833 17.94 61.257 19.331 61.257 20.781 C 61.257 22.232 61.833 23.623 62.859 24.648 C 63.884 25.674 65.275 26.25 66.726 26.25 C 68.176 26.25 69.567 25.674 70.593 24.648 C 71.618 23.623 72.194 22.232 72.194 20.781 C 72.194 19.331 71.618 17.94 70.593 16.914 C 69.567 15.889 68.176 15.313 66.726 15.313 Z" fill="currentColor" fill-rule="nonzero"></path>
</svg>