<svg xmlns="http://www.w3.org/2000/svg" width="89.985" height="71.250" viewBox="0 0 89.985 71.250" fill="none">
  <path d="M 0 14.063 C 0 10.333 1.482 6.756 4.119 4.119 C 6.756 1.482 10.333 0 14.063 0 L 75.923 0 C 79.652 0 83.229 1.482 85.866 4.119 C 88.503 6.756 89.985 10.333 89.985 14.063 L 89.985 14.1 L 44.985 37.151 L 0 14.115 L 0 14.063 Z M 0 20.434 L 0 57.188 C 0 60.917 1.482 64.494 4.119 67.131 C 6.756 69.768 10.333 71.25 14.063 71.25 L 75.923 71.25 C 79.652 71.25 83.229 69.768 85.866 67.131 C 88.503 64.494 89.985 60.917 89.985 57.188 L 89.985 20.423 L 46.268 42.818 C 45.871 43.021 45.431 43.127 44.985 43.127 C 44.539 43.127 44.099 43.021 43.702 42.818 L 0 20.434 Z" fill="currentColor" fill-rule="nonzero"></path>
</svg>