<svg xmlns="http://www.w3.org/2000/svg" width="87.500" height="70" viewBox="0 0 87.500 70" fill="none">
  <path d="M 43.75 0 C 47.491 0 51.327 0.096 55.046 0.254 L 59.439 0.464 L 63.643 0.713 L 67.581 0.98 L 71.177 1.26 C 75.08 1.557 78.754 3.222 81.55 5.961 C 84.346 8.701 86.086 12.339 86.463 16.236 L 86.638 18.095 L 86.966 22.076 C 87.272 26.202 87.5 30.699 87.5 35 C 87.5 39.301 87.272 43.798 86.966 47.924 L 86.638 51.905 L 86.463 53.764 C 86.086 57.661 84.345 61.3 81.548 64.04 C 78.751 66.78 75.077 68.444 71.173 68.74 L 67.585 69.016 L 63.648 69.287 L 59.439 69.536 L 55.046 69.746 C 51.283 69.909 47.517 69.994 43.75 70 C 39.983 69.994 36.217 69.909 32.454 69.746 L 28.061 69.536 L 23.857 69.287 L 19.919 69.016 L 16.323 68.74 C 12.42 68.443 8.746 66.778 5.95 64.039 C 3.154 61.299 1.414 57.661 1.037 53.764 L 0.862 51.905 L 0.534 47.924 C 0.201 43.624 0.022 39.313 0 35 C 0 30.699 0.227 26.202 0.534 22.076 L 0.862 18.095 L 1.037 16.236 C 1.414 12.34 3.153 8.702 5.949 5.963 C 8.744 3.223 12.416 1.558 16.319 1.26 L 19.911 0.98 L 23.848 0.713 L 28.057 0.464 L 32.449 0.254 C 36.214 0.091 39.982 0.006 43.75 0 Z M 35 24.391 L 35 45.609 C 35 47.631 37.188 48.891 38.938 47.884 L 57.313 37.275 C 57.712 37.045 58.044 36.713 58.275 36.314 C 58.506 35.915 58.628 35.461 58.628 35 C 58.628 34.539 58.506 34.085 58.275 33.686 C 58.044 33.287 57.712 32.955 57.313 32.725 L 38.938 22.12 C 38.538 21.89 38.086 21.768 37.625 21.768 C 37.164 21.768 36.711 21.89 36.312 22.12 C 35.913 22.351 35.581 22.683 35.351 23.082 C 35.121 23.481 35 23.934 35 24.395 L 35 24.391 Z" fill="currentColor" fill-rule="evenodd"></path>
</svg>